<?xml version="1.0" encoding="utf-8"?>
<!-- Generator: Adobe Illustrator 22.0.1, SVG Export Plug-In . SVG Version: 6.00 Build 0)  -->
<svg version="1.1" id="Capa_1" xmlns="http://www.w3.org/2000/svg" xmlns:xlink="http://www.w3.org/1999/xlink" x="0px" y="0px"
	 viewBox="0 0 1261.4 425.2" style="enable-background:new 0 0 1261.4 425.2;" xml:space="preserve">
<g>
	<polygon class="White" style="fill:#FFFFFF" points="22.5,32.4 28,202.5 50.3,273 174.3,392.9 265.1,319.7 332.9,220.1 337,32.4 	"/>
	<path class="Primary" style="fill:#11A8A8;" d="M526.2,289.8c-18.8,0-38.4-4.5-49.3-10.4l12.2-32.3c8.4,5.1,22.3,9,35.3,9
		c17.8,0,29.2-9.2,29.2-23.3c0-13.5-12.2-20.4-26.2-26.7c-21.4-9.8-48.2-24.1-48.2-57.7c0-34.2,23.9-56.7,62.3-56.7
		c18.8,0,35,4.5,44.8,10.4l-11.7,30.2c-6.9-4-19.3-8.4-31.5-8.4c-16.2,0-26.5,9-26.5,22.6c0,13.2,13,20.4,27,27.2
		c20.9,10.4,48.2,23.6,48.2,57.5C591.7,266.1,567.6,289.8,526.2,289.8"/>
	<path class="Primary" style="fill:#11A8A8;" d="M696.6,286.7v-93.2c0-15.7-9.6-23.6-25.9-23.6c-7.1,0-15.1,2.1-20.6,5.3v111.5h-36v-208h36v69.4
		c8.4-4,19.3-6.6,29.9-6.6c33.6,0,53,17,53,48.2v97H696.6z"/>
	<path class="Primary" style="fill:#11A8A8;" d="M820.4,167c-18.8,0-32.1,13.8-32.6,40.6l59.9-8.2C847.6,177.8,837,167,820.4,167 M882.1,217.8
		l-92,12.5c3.2,20.9,18.6,31.3,39.4,31.3c14.3,0,29.7-3.8,39.7-9l10.4,27c-11.9,6.1-32,10.4-52.8,10.4c-47.2,0-72.1-30.8-72.1-74.7
		c0-43.7,24.6-74.4,66.3-74.4c39.4,0,61.5,25.9,61.5,64.9C882.6,209.7,882.6,213.6,882.1,217.8"/>
	<path class="Primary" style="fill:#11A8A8;" d="M974.7,172c-4.5-1.3-10.4-2.1-16.2-2.1c-6.6,0-13.5,1.1-18,2.9v113.9h-36V151.1
		c14.8-5.8,35.3-10.4,58.3-10.4c7.4,0,13.7,0.5,18.6,1.3L974.7,172z"/>
	<path class="Primary" style="fill:#11A8A8;" d="M1053,168.8c-6.6,0-13.5,1.3-16.7,2.9v86.4c2.9,1.3,10.6,2.6,17,2.6c22.6,0,34.2-19.1,34.2-46
		C1087.5,185.8,1075.3,168.8,1053,168.8 M1057,288.3c-7.7,0-16.2-1.6-20.6-3.2v58.5h-36.1V151.1c10.6-5.6,30.7-10.4,52.2-10.4
		c46.1,0,71.2,27.5,71.2,73.9C1123.8,258.6,1100.7,288.3,1057,288.3"/>
	<path class="Primary" style="fill:#11A8A8;" d="M1222.7,217.8c-26.5,1.3-49.8,3.8-49.8,25.2c0,13.5,10.6,21.2,29.4,21.2c7.7,0,16.7-1.3,20.4-2.9
		V217.8z M1203.4,289.8c-42.9,0-64.3-17-64.3-46.1c0-38.9,40.6-46.7,83.8-49v-7.4c0-14.8-10.4-20.4-26.7-20.4
		c-13.5,0-29.9,4.3-40,8.4l-9-24.4c11.9-5.1,32.3-10.4,53-10.4c36.6,0,57,14.3,57,50.8v87.9C1246.3,285.1,1224.9,289.8,1203.4,289.8
		z"/>
	<path class="Primary" style="fill:#11A8A8;" d="M335.6,8.9H31.7c-15,0-27.2,12.2-27.2,27.2v92.2C4.5,192,23,251.2,55.2,300.4
		c36.2,51.8,84.7,92.3,113.5,111.3c9.1,6,20.9,6,30.1,0c28.8-19,77.3-59.6,113.5-111.3c32.2-49.3,50.7-108.6,50.7-172.1V36.2
		C362.9,21.1,350.7,8.9,335.6,8.9z M292.4,124.7l23.5,23.5l-35.3,35.3L257.2,160L292.4,124.7z M251,83.1L150.8,183.3l-23.5-23.5
		L227.5,59.7L251,83.1z M142.4,55.8L181.6,95l-23.5,23.5l-39.2-39.1L142.4,55.8z M77.5,120.7l104.2,104.2l-23.5,23.5L54,144.2
		L77.5,120.7z M73.5,260.6L50,237.1L93.1,194l23.5,23.5L73.5,260.6z M138.5,325.5L115,302l108-108l23.5,23.5L138.5,325.5z
		 M231.5,321.7l-39.2-39.2l23.5-23.5l39.2,39.2L231.5,321.7z M293.9,254.1L192.2,152.4l23.5-23.5l101.6,101.6L293.9,254.1z"/>
</g>
</svg>
